
 #     #                            
 #  #  # #####    ##   ##### #    # 
 #  #  # #    #  #  #    #   #    # 
 #  #  # #    # #    #   #   ###### 
 #  #  # #####  ######   #   #    # 
 #  #  # #   #  #    #   #   #    # 
  ## ##  #    # #    #   #   #    # 

File Name : Hereafter 1080p BRRip H264-Wrath.mp4

File Size
Format : MPEG-4
Format profile : Base Media
Codec ID : isom
File size : 3.90 GiB
Duration : 2h 9mn
Overall bit rate : 4 323 Kbps

Video
ID : 1
Format : AVC
Format/Info : Advanced Video Codec
Format profile : High@L4.1
Format settings, CABAC : Yes
Format settings, ReFrames : 3 frames
Codec ID : avc1
Codec ID/Info : Advanced Video Coding
Duration : 2h 9mn
Bit rate mode : Variable
Bit rate : 3 699 Kbps
Maximum bit rate : 22.6 Mbps
Width : 1 920 pixels
Height : 800 pixels
Display aspect ratio : 2.40:1
Frame rate mode : Constant
Frame rate : 23.976 fps
Resolution : 24 bits
Colorimetry : 4:2:0
Scan type : Progressive
Bits/(Pixel*Frame) : 0.100
Stream size : 3.33 GiB (86%)

Audio #1
ID : 2
Format : AAC
Format/Info : Advanced Audio Codec
Format version : Version 4
Format profile : LC
Format settings, SBR : No
Codec ID : 40
Duration : 2h 9mn
Bit rate mode : Variable
Bit rate : 196 Kbps
Maximum bit rate : 287 Kbps
Channel(s) : 2 channels
Channel positions : L R
Sampling rate : 48.0 KHz
Resolution : 16 bits
Stream size : 181 MiB (5%)

Audio #2
ID : 3
Format : AAC
Format/Info : Advanced Audio Codec
Format version : Version 4
Format profile : LC
Format settings, SBR : No
Codec ID : 40
Duration : 2h 9mn
Bit rate mode : Variable
Bit rate : 423 Kbps
Maximum bit rate : 645 Kbps
Channel(s) : 6 channels
Channel positions : Front: L C R, Rear: L R, LFE
Sampling rate : 48.0 KHz
Resolution : 16 bits
Stream size : 390 MiB (10%)

Release Date: 22 October 2010 (USA) 
Genre: Drama | Fantasy 
Plot: A drama centered on three people who are haunted by mortality in different ways. George (Damon) is a blue-collar American who has a special connection to the afterlife. On the other side of the world, Marie (de France), a French journalist, has a near-death experience that shakes her reality. And when Marcus (Frankie/George McLaren), a London schoolboy, loses the person closest to him, he desperately needs answers. Each on a path in search of the truth, their lives will intersect, forever changed by what they believe might-or must-exist in the hereafter.
Cast:
Cécile De France ... Marie Lelay
Thierry Neuvic ... Didier
Cyndi Mayo Davis ... Island Hotel Clerk
Lisa Griffiths ... Stall Owner
Jessica Griffiths ... Island Girl
Ferguson Reid ... Rescuer
Derek Sakakura ... Rescuer
Jay Mohr ... Billy
Richard Kind ... Christos
Matt Damon ... George Lonegan
Charlie Creed-Miles ... Photographer
Frankie McLaren ... Marcus / Jason
George McLaren ... Marcus / Jason
Lyndsey Marshal ... Jackie
Rebekah Staton ... Social Worker






================================== 
http://thepiratebay.org/user/hiest
==================================





Screen Shots:
 
http://leetleech.org/images/51642540741269758576.png
 
http://leetleech.org/images/12331967845187881110.png
 
http://leetleech.org/images/92282329968553821186.png
 
http://leetleech.org/images/92161687234578935749.png


 #     #                            
 #  #  # #####    ##   ##### #    # 
 #  #  # #    #  #  #    #   #    # 
 #  #  # #    # #    #   #   ###### 
 #  #  # #####  ######   #   #    # 
 #  #  # #   #  #    #   #   #    # 
  ## ##  #    # #    #   #   #    # 
